<svg fill="none" viewBox="0 0 14 14">
  <circle cx="7" cy="7" r="6.5" stroke="currentColor"></circle>
  <path fill="currentColor"
    d="M8.91 3.738a2.733 2.733 0 0 0-1.81-.66c-.68 0-1.323.235-1.81.66-.505.443-.784 1.038-.784 1.675v.123c0 .072.058.13.13.13h.778a.13.13 0 0 0 .13-.13v-.123c0-.715.698-1.297 1.556-1.297.858 0 1.557.582 1.557 1.297 0 .504-.357.966-.91 1.179A1.812 1.812 0 0 0 6.58 8.307v.349c0 .071.058.13.13.13h.778a.13.13 0 0 0 .13-.13v-.368a.783.783 0 0 1 .5-.727c.957-.368 1.575-1.21 1.575-2.148.001-.637-.277-1.232-.783-1.675Zm-2.458 6.734a.649.649 0 1 0 1.297 0 .649.649 0 0 0-1.297 0Z">
  </path>
</svg>