<svg xmlns="http://www.w3.org/2000/svg" viewBox="0 0 19 20" fill="none">
  <path fill="currentColor" fill-rule="evenodd"
    d="M5.478.735C6.472.69 6.788.68 9.32.68c2.531 0 2.848.011 3.841.056.993.045 1.671.203 2.264.433a4.586 4.586 0 0 1 1.651 1.076c.474.465.84 1.028 1.074 1.65.23.593.388 1.27.434 2.262.046.996.056 1.313.056 3.844 0 2.532-.01 2.848-.056 3.842-.045.992-.203 1.67-.434 2.263a4.573 4.573 0 0 1-1.074 1.651c-.466.475-1.03.84-1.65 1.075-.594.23-1.272.388-2.263.433-.995.046-1.312.056-3.843.056-2.532 0-2.85-.01-3.843-.056-.991-.044-1.67-.203-2.262-.433a4.574 4.574 0 0 1-1.652-1.075 4.57 4.57 0 0 1-1.075-1.65c-.23-.594-.387-1.271-.433-2.263C.01 12.848 0 12.531 0 10 0 7.468.011 7.15.056 6.158c.045-.993.203-1.67.433-2.264a4.572 4.572 0 0 1 1.076-1.65 4.569 4.569 0 0 1 1.65-1.076c.593-.23 1.27-.387 2.262-.433Zm7.609 1.678c-.983-.045-1.278-.054-3.766-.054-2.489 0-2.784.009-3.767.054-.909.041-1.402.193-1.73.321-.436.17-.747.37-1.073.696-.309.301-.547.668-.696 1.072-.128.33-.28.822-.321 1.731-.045.983-.055 1.278-.055 3.767 0 2.488.01 2.783.055 3.766.041.91.193 1.402.32 1.731.15.404.388.771.697 1.072.301.31.668.547 1.072.697.329.128.822.28 1.731.32.983.046 1.277.055 3.767.055 2.489 0 2.783-.01 3.766-.054.91-.042 1.402-.194 1.731-.321.435-.17.746-.37 1.072-.697.31-.3.547-.668.696-1.072.128-.329.28-.822.322-1.73.044-.984.054-1.279.054-3.767 0-2.489-.01-2.784-.055-3.767-.041-.909-.193-1.402-.32-1.73a2.895 2.895 0 0 0-.697-1.073c-.301-.309-.667-.547-1.072-.696-.329-.128-.822-.28-1.731-.321ZM8.13 12.873a3.108 3.108 0 0 0 3.39-5.072 3.11 3.11 0 1 0-3.39 5.072Zm-2.197-6.26a4.79 4.79 0 1 1 6.775 6.775 4.79 4.79 0 0 1-6.775-6.776Zm9.24-.69a1.133 1.133 0 1 0-1.554-1.648 1.133 1.133 0 0 0 1.555 1.647Z"
    clip-rule="evenodd"></path>
</svg>